<svg width="69" height="68" viewBox="0 0 69 68" fill="none" xmlns="http://www.w3.org/2000/svg">
<path d="M63.0662 51.8359H61.2803V45.1259C61.2803 44.2106 60.5356 43.4659 59.6203 43.4659H53.7768C52.8614 43.4659 52.1168 44.2106 52.1168 45.1259V51.843C52.0789 51.8387 52.0407 51.8359 52.0016 51.8359H46.367V45.1259C46.367 44.2106 45.6223 43.4659 44.707 43.4659H38.8635C37.9481 43.4659 37.2035 44.2106 37.2035 45.1259V51.8359H33.9008C33.2195 51.0755 32.3628 50.4761 31.3953 50.0996L31.2152 45.6517C32.6718 45.1865 33.7297 43.8205 33.7297 42.2116V34.7406C33.7297 32.9223 32.3785 31.4143 30.6275 31.1663L30.458 26.9908L36.56 20.3107L41.6648 27.1182C42.3071 27.9742 43.23 28.4927 44.2097 28.6398C44.5968 31.0693 46.706 32.9322 49.2427 32.9322C50.7189 32.9322 52.119 32.2798 53.0774 31.1875L55.1352 32.2016C54.8538 33.207 54.8611 34.304 55.2214 35.3652C55.6823 36.7224 56.644 37.8189 57.9296 38.4527C58.679 38.8222 59.4859 39.0085 60.2976 39.0085C60.8784 39.0085 61.4617 38.9131 62.0278 38.7209C62.5488 38.5441 62.8276 37.9783 62.6507 37.4574C62.4738 36.9364 61.9079 36.6576 61.3874 36.8345C60.5339 37.1243 59.6188 37.0643 58.8105 36.6659C58.0022 36.2674 57.3975 35.578 57.1077 34.7247C56.5095 32.9632 57.4561 31.0434 59.2176 30.4452C60.0709 30.1554 60.9861 30.2154 61.7944 30.6138C62.6027 31.0123 63.2074 31.7017 63.4972 32.555C63.6741 33.0759 64.2399 33.3547 64.7605 33.1779C65.2816 33.0012 65.5603 32.4354 65.3834 31.9145C64.9226 30.5573 63.9609 29.4608 62.6754 28.827C61.3896 28.1932 59.9343 28.098 58.5772 28.5588C57.5168 28.9189 56.6426 29.5803 56.0167 30.415L54.0727 29.4569C54.2471 28.9369 54.3386 28.3895 54.3386 27.8351C54.3386 25.9279 53.3005 24.2306 51.6755 23.3543C51.8344 22.435 51.6648 21.4565 51.1268 20.6041L44.9515 10.8043C45.8625 8.90212 45.4865 6.5759 43.9538 5.05666L40.3259 1.46327C38.4016 -0.444585 35.3392 -0.492796 33.3549 1.35383L18.7624 14.9345H14.0438C9.33812 14.9345 5.50236 18.6175 5.31137 23.3192L4.99129 31.2025C3.34508 31.5378 2.10248 32.9968 2.10248 34.7406V42.2116C2.10248 43.7427 3.06086 45.0533 4.40877 45.5775L4.22509 50.0996C1.78492 51.0491 0.0499878 53.4221 0.0499878 56.1939V66.34C0.0499878 67.2553 0.79467 68 1.71002 68H33.9102C34.8256 68 35.5703 67.2553 35.5703 66.34V65.4962H58.4792C59.0293 65.4962 59.4753 65.0502 59.4753 64.5001C59.4753 63.95 59.0294 63.504 58.4792 63.504H35.5703V56.1937C35.5703 55.3594 35.4115 54.562 35.1253 53.8278H63.0662C64.7139 53.8278 66.0544 55.1683 66.0544 56.816V60.516C66.0544 62.1637 64.7139 63.5042 63.0662 63.5042H62.4633C61.9132 63.5042 61.4672 63.9501 61.4672 64.5003C61.4672 65.0504 61.913 65.4964 62.4633 65.4964H63.0662C65.8124 65.4964 68.0465 63.2623 68.0465 60.5161V56.8161C68.0465 54.0699 65.8124 51.8359 63.0662 51.8359ZM50.8402 25.1713C51.7629 25.7213 52.3463 26.7192 52.3463 27.8353C52.3463 28.3936 52.1967 28.9405 51.9132 29.4175C51.3475 30.3709 50.3491 30.9403 49.2425 30.9403C47.731 30.9403 46.469 29.8544 46.1938 28.4219C46.4741 28.3133 46.7463 28.171 47.0049 27.9932L50.0385 25.9055C50.3462 25.6934 50.6136 25.4453 50.8402 25.1713ZM49.4414 21.6668C49.8045 22.242 49.8244 22.9333 49.5537 23.5056C49.5496 23.5145 49.5451 23.5231 49.5413 23.5323C49.4011 23.817 49.1894 24.0713 48.9091 24.2645L45.8757 26.352C45.6112 26.5341 45.3173 26.641 45.0192 26.677C45.0174 26.6773 45.0155 26.6774 45.0137 26.6777C44.3577 26.755 43.6829 26.4889 43.2583 25.923L37.9273 18.8141L43.6774 12.5191L49.4414 21.6668ZM7.3017 23.4001C7.44926 19.7701 10.4107 16.9265 14.0438 16.9265H21.5766C22.6743 16.9265 23.7214 17.1818 24.6885 17.6854C25.1765 17.9394 25.7778 17.7499 26.0319 17.262C26.286 16.7741 26.0963 16.1726 25.6085 15.9185C24.4039 15.2912 23.0495 14.9531 21.6848 14.9361L34.7123 2.81199C35.9113 1.69649 37.7614 1.72531 38.9239 2.87813L42.5518 6.47165C43.6958 7.6056 43.7654 9.46578 42.6573 10.6822L35.8933 18.0872C35.8914 18.0893 35.8895 18.0913 35.8877 18.0933L30.3434 24.1629L30.3091 23.3191C30.2453 21.7451 29.7584 20.2184 28.9013 18.9044C28.6008 18.4435 27.9836 18.3138 27.523 18.6143C27.0623 18.9149 26.9322 19.5319 27.2329 19.9927C27.8939 21.0063 28.2695 22.1845 28.3189 23.4L28.6328 31.1298H6.98787L7.3017 23.4001ZM4.09441 42.2116V34.7406C4.09441 33.8481 4.82049 33.1219 5.71313 33.1219H30.1188C31.0113 33.1219 31.7375 33.848 31.7375 34.7406V42.2116C31.7375 43.1041 31.0115 43.8302 30.1188 43.8302H5.71313C4.82063 43.8303 4.09441 43.1042 4.09441 42.2116ZM33.5782 66.0081H2.04205V56.194C2.04205 53.6874 4.08139 51.6481 6.58797 51.6481H9.41595C9.96606 51.6481 10.412 51.2021 10.412 50.652C10.412 50.1019 9.96606 49.6559 9.41595 49.6559C6.31676 49.6559 6.48517 49.6523 6.23628 49.6656L6.39233 45.8224H29.2284L29.384 49.6656C29.1158 49.6514 30.2482 49.6559 13.4001 49.6559C12.85 49.6559 12.404 50.1019 12.404 50.652C12.404 51.2021 12.85 51.6481 13.4001 51.6481H29.0321C31.5387 51.6481 33.5781 53.6874 33.5781 56.194C33.5782 57.4292 33.5782 64.7684 33.5782 66.0081ZM44.375 51.8355H39.1955V45.4579H44.375V51.8355ZM59.2883 51.8355H54.1088V45.4579H59.2883V51.8355Z" fill="url(#paint0_linear_46_1908)"/>
<path d="M41.1139 58.8434C41.1139 60.5962 42.54 62.0222 44.2928 62.0222C46.0456 62.0222 47.4716 60.5962 47.4716 58.8434C47.4716 57.0905 46.0455 55.6645 44.2928 55.6645C42.54 55.6643 41.1139 57.0905 41.1139 58.8434ZM45.4796 58.8434C45.4796 59.4977 44.9471 60.0302 44.2928 60.0302C43.6384 60.0302 43.1059 59.4977 43.1059 58.8434C43.1059 58.189 43.6384 57.6565 44.2928 57.6565C44.9471 57.6565 45.4796 58.1889 45.4796 58.8434Z" fill="url(#paint1_linear_46_1908)"/>
<path d="M55.0718 58.8434C55.0718 60.5962 56.498 62.0222 58.2509 62.0222C60.0037 62.0222 61.4297 60.5962 61.4297 58.8434C61.4297 54.6422 55.0718 54.6422 55.0718 58.8434ZM58.2509 60.0302C57.5965 60.0302 57.0639 59.4977 57.0639 58.8434C57.0639 58.189 57.5965 57.6565 58.2509 57.6565C58.9052 57.6565 59.4377 58.189 59.4377 58.8434C59.4377 59.4977 58.9054 60.0302 58.2509 60.0302Z" fill="url(#paint2_linear_46_1908)"/>
<path d="M17.8101 19.6145C15.6084 19.6145 13.817 21.4059 13.817 23.6077C13.817 25.8096 15.6084 27.6008 17.8101 27.6008C20.0119 27.6008 21.8033 25.8095 21.8033 23.6077C21.8033 21.4059 20.0119 19.6145 17.8101 19.6145ZM17.8101 25.6088C16.7067 25.6088 15.809 24.7111 15.809 23.6077C15.809 22.5043 16.7067 21.6066 17.8101 21.6066C18.9135 21.6066 19.8112 22.5043 19.8112 23.6077C19.8112 24.7111 18.9135 25.6088 17.8101 25.6088Z" fill="url(#paint3_linear_46_1908)"/>
<path d="M37.8019 11.5705C40.238 10.4207 40.0514 6.89187 37.5323 5.98821C34.9872 5.07525 32.6358 7.71132 33.7757 10.1263C34.4861 11.6314 36.2832 12.2873 37.8019 11.5705ZM35.5391 8.48655C35.8506 7.61809 37.0543 7.56735 37.4448 8.39451C37.6877 8.90943 37.4666 9.52608 36.9516 9.76912C36.1281 10.1576 35.2271 9.35621 35.5391 8.48655Z" fill="url(#paint4_linear_46_1908)"/>
<path d="M7.20847 42.2403H14.8131C15.3632 42.2403 15.8092 41.7943 15.8092 41.2442V35.9933C15.8092 35.4432 15.3632 34.9972 14.8131 34.9972H7.20847C6.65836 34.9972 6.21237 35.4432 6.21237 35.9933V41.2442C6.21237 41.7944 6.65836 42.2403 7.20847 42.2403ZM8.20443 36.9894H13.817V40.2482H8.20443V36.9894Z" fill="url(#paint5_linear_46_1908)"/>
<path d="M19.4941 37.548H19.9006C20.4507 37.548 20.8967 37.102 20.8967 36.5519C20.8967 36.0018 20.4507 35.5558 19.9006 35.5558H19.4941C18.9439 35.5558 18.498 36.0018 18.498 36.5519C18.498 37.102 18.9439 37.548 19.4941 37.548Z" fill="url(#paint6_linear_46_1908)"/>
<path d="M23.5885 37.548H23.9951C24.5452 37.548 24.9912 37.102 24.9912 36.5519C24.9912 36.0018 24.5452 35.5558 23.9951 35.5558H23.5885C23.0384 35.5558 22.5925 36.0018 22.5925 36.5519C22.5925 37.102 23.0384 37.548 23.5885 37.548Z" fill="url(#paint7_linear_46_1908)"/>
<path d="M27.6832 37.548H28.0897C28.6398 37.548 29.0858 37.102 29.0858 36.5519C29.0858 36.0018 28.6398 35.5558 28.0897 35.5558H27.6832C27.1331 35.5558 26.6871 36.0018 26.6871 36.5519C26.6871 37.102 27.1331 37.548 27.6832 37.548Z" fill="url(#paint8_linear_46_1908)"/>
<path d="M19.4941 41.3964H19.9006C20.4507 41.3964 20.8967 40.9504 20.8967 40.4003C20.8967 39.8502 20.4507 39.4042 19.9006 39.4042H19.4941C18.9439 39.4042 18.498 39.8502 18.498 40.4003C18.498 40.9504 18.9439 41.3964 19.4941 41.3964Z" fill="url(#paint9_linear_46_1908)"/>
<path d="M23.5885 41.3964H23.9951C24.5452 41.3964 24.9912 40.9504 24.9912 40.4003C24.9912 39.8502 24.5452 39.4042 23.9951 39.4042H23.5885C23.0384 39.4042 22.5925 39.8502 22.5925 40.4003C22.5925 40.9504 23.0384 41.3964 23.5885 41.3964Z" fill="url(#paint10_linear_46_1908)"/>
<path d="M27.6832 41.3964H28.0897C28.6398 41.3964 29.0858 40.9504 29.0858 40.4003C29.0858 39.8502 28.6398 39.4042 28.0897 39.4042H27.6832C27.1331 39.4042 26.6871 39.8502 26.6871 40.4003C26.6871 40.9504 27.1331 41.3964 27.6832 41.3964Z" fill="url(#paint11_linear_46_1908)"/>
<path d="M8.23405 56.7678C6.48119 56.7678 5.05504 58.1938 5.05504 59.9466C5.05504 61.6995 6.48119 63.1256 8.23405 63.1256C9.98691 63.1256 11.4129 61.6995 11.4129 59.9466C11.4129 58.1939 9.98691 56.7678 8.23405 56.7678ZM8.23405 61.1336C7.57968 61.1336 7.0471 60.6011 7.0471 59.9466C7.0471 59.2923 7.57955 58.7598 8.23405 58.7598C8.88855 58.7598 9.42087 59.2923 9.42087 59.9466C9.42087 60.6011 8.88842 61.1336 8.23405 61.1336Z" fill="url(#paint12_linear_46_1908)"/>
<path d="M28.3739 55.6677H28.1335V55.336C28.1335 54.7859 27.6876 54.3399 27.1374 54.3399C26.5873 54.3399 26.1413 54.7859 26.1413 55.336V55.6677H25.901C25.3508 55.6677 24.9049 56.1137 24.9049 56.6638C24.9049 57.2139 25.3508 57.6599 25.901 57.6599H26.1413V62.3203C26.1413 62.8704 26.5873 63.3164 27.1374 63.3164C27.6876 63.3164 28.1335 62.8704 28.1335 62.3203V57.6599H28.3739C28.924 57.6599 29.37 57.2139 29.37 56.6638C29.37 56.1135 28.924 55.6677 28.3739 55.6677Z" fill="url(#paint13_linear_46_1908)"/>
<path d="M23.0024 59.2715H22.7621V55.3359C22.7621 54.7858 22.3161 54.3398 21.766 54.3398C21.2158 54.3398 20.7699 54.7858 20.7699 55.3359V59.2715H20.5295C19.9794 59.2715 19.5334 59.7175 19.5334 60.2676C19.5334 60.8177 19.9794 61.2637 20.5295 61.2637H20.7699V62.3201C20.7699 62.8702 21.2158 63.3162 21.766 63.3162C22.3161 63.3162 22.7621 62.8702 22.7621 62.3201V61.2637H23.0024C23.5526 61.2637 23.9985 60.8177 23.9985 60.2676C23.9984 59.7175 23.5526 59.2715 23.0024 59.2715Z" fill="url(#paint14_linear_46_1908)"/>
<path d="M17.6308 56.7678H17.3904V55.3359C17.3904 54.7858 16.9445 54.3398 16.3943 54.3398C15.8442 54.3398 15.3982 54.7858 15.3982 55.3359V56.7678H15.1579C14.6077 56.7678 14.1618 57.2137 14.1618 57.7639C14.1618 58.314 14.6077 58.7599 15.1579 58.7599H15.3982V62.3201C15.3982 62.8702 15.8442 63.3162 16.3943 63.3162C16.9445 63.3162 17.3904 62.8702 17.3904 62.3201V58.7599H17.6308C18.1809 58.7599 18.6269 58.314 18.6269 57.7639C18.6269 57.2137 18.1809 56.7678 17.6308 56.7678Z" fill="url(#paint15_linear_46_1908)"/>
<defs>
<linearGradient id="paint0_linear_46_1908" x1="34.0471" y1="0.00561396" x2="34.0471" y2="67.9944" gradientUnits="userSpaceOnUse">
<stop stop-color="#FBBD12"/>
<stop offset="0.25" stop-color="#A2D63C"/>
<stop offset="0.47" stop-color="#61C9BF"/>
<stop offset="0.81" stop-color="#007E88"/>
<stop offset="1" stop-color="#2670DB"/>
</linearGradient>
<linearGradient id="paint1_linear_46_1908" x1="34.0471" y1="0.00561396" x2="34.0471" y2="67.9944" gradientUnits="userSpaceOnUse">
<stop stop-color="#FBBD12"/>
<stop offset="0.25" stop-color="#A2D63C"/>
<stop offset="0.47" stop-color="#61C9BF"/>
<stop offset="0.81" stop-color="#007E88"/>
<stop offset="1" stop-color="#2670DB"/>
</linearGradient>
<linearGradient id="paint2_linear_46_1908" x1="34.0471" y1="0.00561396" x2="34.0471" y2="67.9944" gradientUnits="userSpaceOnUse">
<stop stop-color="#FBBD12"/>
<stop offset="0.25" stop-color="#A2D63C"/>
<stop offset="0.47" stop-color="#61C9BF"/>
<stop offset="0.81" stop-color="#007E88"/>
<stop offset="1" stop-color="#2670DB"/>
</linearGradient>
<linearGradient id="paint3_linear_46_1908" x1="34.0471" y1="0.00561396" x2="34.0471" y2="67.9944" gradientUnits="userSpaceOnUse">
<stop stop-color="#FBBD12"/>
<stop offset="0.25" stop-color="#A2D63C"/>
<stop offset="0.47" stop-color="#61C9BF"/>
<stop offset="0.81" stop-color="#007E88"/>
<stop offset="1" stop-color="#2670DB"/>
</linearGradient>
<linearGradient id="paint4_linear_46_1908" x1="34.0471" y1="0.00561396" x2="34.0471" y2="67.9944" gradientUnits="userSpaceOnUse">
<stop stop-color="#FBBD12"/>
<stop offset="0.25" stop-color="#A2D63C"/>
<stop offset="0.47" stop-color="#61C9BF"/>
<stop offset="0.81" stop-color="#007E88"/>
<stop offset="1" stop-color="#2670DB"/>
</linearGradient>
<linearGradient id="paint5_linear_46_1908" x1="34.0471" y1="0.00561396" x2="34.0471" y2="67.9944" gradientUnits="userSpaceOnUse">
<stop stop-color="#FBBD12"/>
<stop offset="0.25" stop-color="#A2D63C"/>
<stop offset="0.47" stop-color="#61C9BF"/>
<stop offset="0.81" stop-color="#007E88"/>
<stop offset="1" stop-color="#2670DB"/>
</linearGradient>
<linearGradient id="paint6_linear_46_1908" x1="34.0471" y1="0.00561396" x2="34.0471" y2="67.9944" gradientUnits="userSpaceOnUse">
<stop stop-color="#FBBD12"/>
<stop offset="0.25" stop-color="#A2D63C"/>
<stop offset="0.47" stop-color="#61C9BF"/>
<stop offset="0.81" stop-color="#007E88"/>
<stop offset="1" stop-color="#2670DB"/>
</linearGradient>
<linearGradient id="paint7_linear_46_1908" x1="34.0471" y1="0.00561396" x2="34.0471" y2="67.9944" gradientUnits="userSpaceOnUse">
<stop stop-color="#FBBD12"/>
<stop offset="0.25" stop-color="#A2D63C"/>
<stop offset="0.47" stop-color="#61C9BF"/>
<stop offset="0.81" stop-color="#007E88"/>
<stop offset="1" stop-color="#2670DB"/>
</linearGradient>
<linearGradient id="paint8_linear_46_1908" x1="34.0471" y1="0.00561396" x2="34.0471" y2="67.9944" gradientUnits="userSpaceOnUse">
<stop stop-color="#FBBD12"/>
<stop offset="0.25" stop-color="#A2D63C"/>
<stop offset="0.47" stop-color="#61C9BF"/>
<stop offset="0.81" stop-color="#007E88"/>
<stop offset="1" stop-color="#2670DB"/>
</linearGradient>
<linearGradient id="paint9_linear_46_1908" x1="34.0471" y1="0.00561396" x2="34.0471" y2="67.9944" gradientUnits="userSpaceOnUse">
<stop stop-color="#FBBD12"/>
<stop offset="0.25" stop-color="#A2D63C"/>
<stop offset="0.47" stop-color="#61C9BF"/>
<stop offset="0.81" stop-color="#007E88"/>
<stop offset="1" stop-color="#2670DB"/>
</linearGradient>
<linearGradient id="paint10_linear_46_1908" x1="34.0471" y1="0.00561396" x2="34.0471" y2="67.9944" gradientUnits="userSpaceOnUse">
<stop stop-color="#FBBD12"/>
<stop offset="0.25" stop-color="#A2D63C"/>
<stop offset="0.47" stop-color="#61C9BF"/>
<stop offset="0.81" stop-color="#007E88"/>
<stop offset="1" stop-color="#2670DB"/>
</linearGradient>
<linearGradient id="paint11_linear_46_1908" x1="34.0471" y1="0.00561396" x2="34.0471" y2="67.9944" gradientUnits="userSpaceOnUse">
<stop stop-color="#FBBD12"/>
<stop offset="0.25" stop-color="#A2D63C"/>
<stop offset="0.47" stop-color="#61C9BF"/>
<stop offset="0.81" stop-color="#007E88"/>
<stop offset="1" stop-color="#2670DB"/>
</linearGradient>
<linearGradient id="paint12_linear_46_1908" x1="34.0471" y1="0.00561396" x2="34.0471" y2="67.9944" gradientUnits="userSpaceOnUse">
<stop stop-color="#FBBD12"/>
<stop offset="0.25" stop-color="#A2D63C"/>
<stop offset="0.47" stop-color="#61C9BF"/>
<stop offset="0.81" stop-color="#007E88"/>
<stop offset="1" stop-color="#2670DB"/>
</linearGradient>
<linearGradient id="paint13_linear_46_1908" x1="34.0471" y1="0.00561396" x2="34.0471" y2="67.9944" gradientUnits="userSpaceOnUse">
<stop stop-color="#FBBD12"/>
<stop offset="0.25" stop-color="#A2D63C"/>
<stop offset="0.47" stop-color="#61C9BF"/>
<stop offset="0.81" stop-color="#007E88"/>
<stop offset="1" stop-color="#2670DB"/>
</linearGradient>
<linearGradient id="paint14_linear_46_1908" x1="34.0471" y1="0.00561396" x2="34.0471" y2="67.9944" gradientUnits="userSpaceOnUse">
<stop stop-color="#FBBD12"/>
<stop offset="0.25" stop-color="#A2D63C"/>
<stop offset="0.47" stop-color="#61C9BF"/>
<stop offset="0.81" stop-color="#007E88"/>
<stop offset="1" stop-color="#2670DB"/>
</linearGradient>
<linearGradient id="paint15_linear_46_1908" x1="34.0471" y1="0.00561396" x2="34.0471" y2="67.9944" gradientUnits="userSpaceOnUse">
<stop stop-color="#FBBD12"/>
<stop offset="0.25" stop-color="#A2D63C"/>
<stop offset="0.47" stop-color="#61C9BF"/>
<stop offset="0.81" stop-color="#007E88"/>
<stop offset="1" stop-color="#2670DB"/>
</linearGradient>
</defs>
</svg>
