<svg width="81" height="51" viewBox="0 0 81 51" fill="none" xmlns="http://www.w3.org/2000/svg">
<path fill-rule="evenodd" clip-rule="evenodd" d="M74.9826 42.3961C74.9826 42.4021 74.9828 42.4081 74.9829 42.4142C74.9831 42.4207 74.9834 42.4273 74.9836 42.4338L74.9838 42.4392C74.9833 42.4248 74.9827 42.4105 74.9826 42.3961ZM74.9848 42.4792C74.9848 42.5417 74.984 42.6041 74.9826 42.6662C74.9776 42.8749 74.9645 43.0816 74.9434 43.286C74.9707 43.0207 74.9848 42.7515 74.9848 42.4792ZM58.9905 42.4792C58.9905 42.464 58.9911 42.4489 58.9917 42.4338L58.9922 42.4171L58.9927 42.3961C58.9926 42.4087 58.9921 42.4212 58.9917 42.4338C58.9911 42.4489 58.9905 42.464 58.9905 42.4792ZM30.5353 42.3961C30.5355 42.4085 30.5359 42.4209 30.5364 42.4333L30.5359 42.4189L30.5353 42.3961ZM30.5364 42.4333C30.5368 42.4436 30.5372 42.4543 30.5374 42.4646C30.5373 42.4595 30.5371 42.4542 30.537 42.4491C30.5368 42.444 30.5366 42.4384 30.5364 42.4333ZM30.5375 42.4792C30.5375 42.7515 30.5235 43.0207 30.4962 43.286C30.5173 43.0815 30.5304 42.8748 30.5353 42.6661C30.5368 42.604 30.5375 42.5417 30.5375 42.4792ZM14.5444 42.4339C14.5439 42.449 14.5433 42.464 14.5433 42.4792L14.5444 42.4339ZM14.5444 42.4339C14.5449 42.4213 14.5454 42.4087 14.5455 42.3961L14.5451 42.4132L14.5444 42.4339ZM72.2436 12.8448L74.4671 21.6322L74.6792 21.6641C77.7188 22.1213 80.0501 24.7202 80.05 27.8407V41.1485C80.05 41.6557 79.6326 42.0735 79.1098 42.0735H74.6563L74.66 42.3998C74.6602 42.4169 74.6608 42.4336 74.6613 42.4457L74.6614 42.4495C74.6619 42.4634 74.6622 42.4718 74.6622 42.4792C74.6622 46.6543 71.2227 50.0581 66.9876 50.0581C62.7526 50.0581 59.3131 46.6543 59.3131 42.4792C59.3131 42.4719 59.3134 42.4635 59.3139 42.4496L59.314 42.4452C59.3145 42.4332 59.3151 42.4166 59.3153 42.3998L59.319 42.0735H30.2091L30.2128 42.3998C30.2129 42.4093 30.2131 42.4187 30.2134 42.4273L30.2142 42.4495C30.2147 42.4633 30.215 42.4718 30.215 42.4792C30.215 46.6543 26.7754 50.0581 22.5404 50.0581C18.3054 50.0581 14.8659 46.6543 14.8659 42.4792C14.8659 42.4719 14.8661 42.4634 14.8667 42.4496C14.8669 42.4439 14.8671 42.4368 14.8674 42.429C14.8677 42.4199 14.868 42.4099 14.8681 42.3998L14.8718 42.0735H7.72468C6.46015 42.0735 5.43763 41.0577 5.43763 39.8177V36.7503H0.990168C0.467199 36.7503 0.0499878 36.3326 0.0499878 35.8253C0.0499878 35.318 0.467329 34.9002 0.990168 34.9002H13.1122C13.6351 34.9002 14.0523 35.318 14.0523 35.8253C14.0523 36.3325 13.635 36.7503 13.1122 36.7503H7.31783V39.8177C7.31783 40.0454 7.50356 40.2234 7.72452 40.2234H15.2115L15.2872 40.0075C16.3272 37.04 19.1842 34.9002 22.5404 34.9002C25.8966 34.9002 28.7535 37.0399 29.7937 40.0075L29.8693 40.2234H56.619V30.5024C56.619 29.9951 57.0364 29.5773 57.5592 29.5773C58.0822 29.5773 58.4994 29.9952 58.4994 30.5024V40.2237H59.6587L59.7344 40.0078C60.7744 37.0403 63.6314 34.9005 66.9876 34.9005C70.3439 34.9005 73.2007 37.0402 74.2409 40.0078L74.3166 40.2237H78.1696V34.0891H76.4159C74.4087 34.0891 72.782 32.4763 72.782 30.5025V27.841C72.782 27.3337 73.1993 26.9159 73.7222 26.9159H78.0932L77.9552 26.4933C77.3784 24.7259 75.7015 23.4456 73.7281 23.4429L73.7179 23.4427H58.4997V25.1796C58.4997 25.6869 58.0824 26.1047 57.5595 26.1047C57.0366 26.1047 56.6194 25.6868 56.6194 25.1796V2.55589C56.6194 2.32816 56.4336 2.1502 56.2127 2.1502H7.72452C7.50357 2.1502 7.31783 2.32817 7.31783 2.55589V25.1793C7.31783 25.6866 6.90049 26.1044 6.37765 26.1044C5.85471 26.1044 5.43747 25.6865 5.43747 25.1793V2.55589C5.43747 1.31589 6.45999 0.300049 7.72452 0.300049H56.2128C57.4774 0.300049 58.4999 1.31589 58.4999 2.55589V5.62341H68.3348C71.0845 5.62341 73.3156 7.83322 73.3156 10.5408V11.8715C73.3156 12.3126 73 12.6861 72.5725 12.7758L72.2436 12.8448ZM68.3348 7.47341H58.4999V10.9465H71.4354V10.5408C71.4354 8.8455 70.0411 7.47341 68.3348 7.47341ZM73.7663 23.4463C73.7661 23.4462 73.7597 23.4453 73.7519 23.4445L73.7559 23.4449L73.7643 23.446L73.7663 23.4463ZM58.4999 12.7965V21.5927H72.5195L70.2938 12.7965H58.4999ZM76.4162 32.239H78.17L78.1698 28.7658H74.6625V30.5024C74.6625 31.4639 75.4526 32.239 76.4162 32.239ZM30.6218 23.8683L42.0778 12.5495C42.4451 12.1864 43.0427 12.1864 43.41 12.5494C43.7752 12.9103 43.7752 13.4938 43.4098 13.855L31.2877 25.8321C31.1047 26.0131 30.8642 26.1042 30.6218 26.1042C30.3795 26.1042 30.139 26.0131 29.9558 25.8319L23.2212 19.178C22.8559 18.817 22.8559 18.2335 23.2213 17.8725C23.5886 17.5095 24.186 17.5094 24.5535 17.8726L30.6218 23.8683ZM16.7461 42.4795C16.7461 45.6425 19.3488 48.2084 22.5404 48.2084C25.732 48.2084 28.3348 45.6425 28.3348 42.4795C28.3348 39.3166 25.732 36.7506 22.5404 36.7506C19.3488 36.7506 16.7461 39.3166 16.7461 42.4795ZM61.1936 42.4795C61.1936 45.6425 63.7964 48.2084 66.988 48.2084C70.1796 48.2084 72.7823 45.6425 72.7823 42.4795C72.7823 39.3166 70.1796 36.7506 66.988 36.7506C63.7964 36.7506 61.1936 39.3166 61.1936 42.4795ZM20.2534 42.4795C20.2534 41.2395 21.2759 40.2237 22.5404 40.2237C23.805 40.2237 24.8275 41.2395 24.8275 42.4795C24.8275 43.7195 23.805 44.7354 22.5404 44.7354C21.2759 44.7354 20.2534 43.7195 20.2534 42.4795ZM64.7009 42.4795C64.7009 41.2395 65.7234 40.2237 66.988 40.2237C68.2525 40.2237 69.275 41.2395 69.275 42.4795C69.275 43.7195 68.2525 44.7354 66.988 44.7354C65.7234 44.7354 64.7009 43.7195 64.7009 42.4795ZM33.3156 34.9007H52.1721C52.695 34.9007 53.1122 35.3184 53.1122 35.8257C53.1122 36.333 52.6949 36.7508 52.1721 36.7508H33.3156C32.7926 36.7508 32.3754 36.333 32.3754 35.8257C32.3754 35.3184 32.7927 34.9007 33.3156 34.9007ZM3.68391 29.5774H19.8467C20.3695 29.5774 20.7869 29.9952 20.7869 30.5025C20.7869 31.0098 20.3695 31.4276 19.8467 31.4276H3.68391C3.16094 31.4276 2.74373 31.0098 2.74373 30.5025C2.74373 29.9952 3.16107 29.5774 3.68391 29.5774Z" fill="url(#paint0_linear_46_2040)"/>
<defs>
<linearGradient id="paint0_linear_46_2040" x1="40.0487" y1="0.306654" x2="40.0487" y2="50.0515" gradientUnits="userSpaceOnUse">
<stop stop-color="#FBBD12"/>
<stop offset="0.25" stop-color="#A2D63C"/>
<stop offset="0.47" stop-color="#61C9BF"/>
<stop offset="0.81" stop-color="#007E88"/>
<stop offset="1" stop-color="#2670DB"/>
</linearGradient>
</defs>
</svg>
