<?xml version="1.0" encoding="UTF-8"?>
<svg id="Layer_1" data-name="Layer 1" xmlns="http://www.w3.org/2000/svg" xmlns:xlink="http://www.w3.org/1999/xlink" viewBox="0 0 482 296">
  <defs>
    <style>
      .cls-1 {
        clip-path: url(#clippath);
      }

      .cls-2 {
        fill: none;
      }

      .cls-2, .cls-3, .cls-4, .cls-5 {
        stroke-width: 0px;
      }

      .cls-3 {
        fill: url(#linear-gradient);
      }

      .cls-6 {
        clip-path: url(#clippath-1);
      }

      .cls-4 {
        fill: url(#linear-gradient-2);
      }

      .cls-5 {
        fill: url(#linear-gradient-3);
      }
    </style>
    <linearGradient id="linear-gradient" x1="44.1" y1="222.4" x2="437.9" y2="222.4" gradientUnits="userSpaceOnUse">
      <stop offset=".06" stop-color="#2670db"/>
      <stop offset=".24" stop-color="#007e88"/>
      <stop offset=".47" stop-color="#61c9bf"/>
      <stop offset=".51" stop-color="#6acaab"/>
      <stop offset=".59" stop-color="#82cf7a"/>
      <stop offset=".68" stop-color="#a2d63c"/>
      <stop offset=".75" stop-color="#bacf30"/>
      <stop offset=".9" stop-color="#e8c21a"/>
      <stop offset=".98" stop-color="#fbbd12"/>
    </linearGradient>
    <clipPath id="clippath">
      <path class="cls-2" d="M89.25,67.38c-13.76,4.45-25.6,11.23-34.21,19.6-3.94,3.71-7.01,6.84-9.66,9.82-.95,1.07-1.41,2.52-1.25,3.96.17,1.49.95,2.84,2.23,3.76.94.68,2.02,1.01,3.09,1.01,1.56,0,3.11-.71,4.14-2.06,5.07-6.66,12.92-12.26,20.83-14.95,15.32-3.37,28.67,2.22,41.58,7.63l1.06.44,4.31-5.42c2.99-4.36,7.55-10.15,12.85-16.31l1.33-1.54-1.86-.83c-1.66-.74-3.11-1.32-4.29-1.71l-1.77-.59c-1.67-.56-3.34-1.1-5.06-1.57-4.65-1.23-10.18-2.56-15.96-3.04l-6.6-.14c-3.88.16-7.44.8-10.75,1.94M369.77,54.81c-1.24.1-2.37.68-3.15,1.6l-53.84,60.38-.35.36c-4.63,4.79-9.87,10.22-15.68,15.81l-1.03.86c-5.37,5.21-12.45,9.34-19.27,11.29-.25.04-.49.07-.73.1l-.59.07c-15.28,2.11-28.32-4.12-40.94-10.15-2.73-1.31-5.44-2.6-8.08-3.77-5.6-2.87-11.95-6.73-19.43-11.78l-.69-.47-.04.02c-.7-.47-1.86-1.29-2.61-1.86l-.25-.18c-6.19-4.3-19.44-13.92-23.36-16.96l.07-.08-3.71-2.8c-1.84-1.48-11.91-7.74-21.49-13.03l-1.1-.52-6.3,6.98-12.44,15.19,1.71.84c4.71,2.33,10,5.27,15.73,8.74l.71.42.04-.02c.71.43,1.9,1.18,2.69,1.73,1.7,1.05,6.12,4.33,11.72,8.47,15.01,11.11,37.69,27.89,49.18,33.03,3.65,1.63,6.76,2.85,9.77,3.84,7.01,2.23,14.98,4.36,23.07,4.36,2.4,0,4.81-.18,7.2-.61,1.23-.22,2.46-.45,3.65-.8,10.95-2.94,20.69-7.29,28.94-12.93,2.68-1.83,4.96-3.58,6.96-5.33.94-.81,1.89-1.67,2.83-2.53l1.31-1.19-.02-.02c3.13-2.66,21.91-22.97,25.97-28.48l47.5-52.91c1.67-1.97,1.43-4.92-.54-6.58-.86-.73-1.92-1.11-3.04-1.11-.12,0-.24,0-.36.01"/>
    </clipPath>
    <linearGradient id="linear-gradient-2" x1="1.71" y1="-154.57" x2="3.03" y2="-154.57" gradientTransform="translate(-567.92 55398.24) scale(357.68)" gradientUnits="userSpaceOnUse">
      <stop offset="0" stop-color="#058ece"/>
      <stop offset=".06" stop-color="#048ac0"/>
      <stop offset=".18" stop-color="#01829b"/>
      <stop offset=".24" stop-color="#007e87"/>
      <stop offset=".26" stop-color="#0b868c"/>
      <stop offset=".36" stop-color="#3ba8a6"/>
      <stop offset=".43" stop-color="#58bdb6"/>
      <stop offset=".47" stop-color="#64c5bc"/>
      <stop offset=".57" stop-color="#81c880"/>
      <stop offset=".68" stop-color="#a2cc40"/>
      <stop offset=".74" stop-color="#b9c734"/>
      <stop offset=".84" stop-color="#dbc023"/>
      <stop offset=".92" stop-color="#f0bc19"/>
      <stop offset=".98" stop-color="#f8bb16"/>
      <stop offset="1" stop-color="#f8bb16"/>
    </linearGradient>
    <clipPath id="clippath-1">
      <path class="cls-2" d="M328.15,119.72c-2.44,3.29-8.36,10.01-16.26,18.43l-1.25,1.33,1.54.98c2.59,1.64,4.73,2.88,6.54,3.77,3.58,1.77,6.63,3.11,9.63,4.21,7.4,2.68,15.91,5.28,24.6,5.28,1.83,0,3.67-.12,5.51-.37,1.24-.17,2.47-.36,3.67-.65,11.05-2.52,20.95-6.49,29.41-11.81,2.74-1.72,5.09-3.38,7.16-5.07,2.91-2.3,5.44-4.4,7.74-6.43,1.11-.98,1.75-2.41,1.73-3.91,0-1.52-.68-2.95-1.9-4.01h0c-2.02-1.72-4.98-1.68-6.88.1l-.54.46c-5.57,5-12.81,8.85-19.69,10.54-.25.04-.5.05-.75.07l-.57.05c-15.36,1.52-28.15-5.21-40.53-11.72-2-1.05-4-2.1-5.99-3.11l-1.05-.52-2.1,2.38ZM414.37,96.89c-2.77,2.53-4.38,5.99-4.54,9.74-.17,3.74,1.14,7.33,3.68,10.1,2.53,2.76,6,4.38,9.74,4.54.2,0,.41.01.61.01,7.47,0,13.7-5.91,14.03-13.43.33-7.73-5.69-14.3-13.42-14.63-.17,0-.35,0-.52,0-3.53,0-6.94,1.27-9.57,3.69M198.78,43.41c-4.03.04-7.61.5-11.02,1.52-13.92,3.91-26.01,10.24-34.94,18.27-2.6,2.26-5.2,4.67-7.72,7.16l-1.55,1.53c-.26.25-.51.49-.75.74-.16.17-.27.34-.34.47-8.05,8.68-15.89,18.22-20.45,24.86l-51.14,65.78c-1.54,1.95-1.21,4.8.75,6.36.8.63,1.75.95,2.7.97h.2c1.3-.03,2.58-.61,3.44-1.71l61.65-77.38,5.62-6.24c2.81-3.11,5.25-5.82,5.49-6.11,5.33-6.46,13.38-11.76,21.4-14.14,15.44-2.79,28.6,3.34,41.34,9.26,2.71,1.26,5.41,2.51,8.02,3.63,5.53,2.76,11.79,6.47,19.13,11.32l.68.44.04-.02c.69.45,1.86,1.25,2.64,1.83,1.65,1.12,6.04,4.65,11.61,9.11,10.47,8.39,24.81,19.9,36.23,27.83l2.02,1.53,1.41-1.4c4.04-4.02,7.75-7.86,11.04-11.29l7.63-9.23c-4.22-2.56-12.28-7.66-19-12.6l-.66-.48h-.04c-.67-.48-1.81-1.35-2.55-1.96l-.25-.19c-6.18-4.66-18.9-14.66-22.68-17.84l.08-.08-3.62-2.94c-2.98-2.59-27.31-18.74-37.47-22.57l-1.74-.65c-1.65-.62-3.3-1.23-4.99-1.77-4.6-1.41-10.09-2.94-15.84-3.65l-5.94-.39h-.43Z"/>
    </clipPath>
    <linearGradient id="linear-gradient-3" x1="1.66" y1="-154.45" x2="2.98" y2="-154.45" gradientTransform="translate(-570.94 52397) scale(338.56)" gradientUnits="userSpaceOnUse">
      <stop offset="0" stop-color="#3f6eb5"/>
      <stop offset=".06" stop-color="#3f6eb5"/>
      <stop offset=".1" stop-color="#3a6fb1"/>
      <stop offset=".15" stop-color="#2c72a7"/>
      <stop offset=".2" stop-color="#147896"/>
      <stop offset=".24" stop-color="#007e87"/>
      <stop offset=".26" stop-color="#0b868c"/>
      <stop offset=".36" stop-color="#3ba8a6"/>
      <stop offset=".43" stop-color="#58bdb6"/>
      <stop offset=".47" stop-color="#64c5bc"/>
      <stop offset=".57" stop-color="#81c880"/>
      <stop offset=".68" stop-color="#a2cc40"/>
      <stop offset=".74" stop-color="#b9c734"/>
      <stop offset=".84" stop-color="#dbc023"/>
      <stop offset=".92" stop-color="#f0bc19"/>
      <stop offset=".98" stop-color="#f8bb16"/>
      <stop offset="1" stop-color="#f8bb16"/>
    </linearGradient>
  </defs>
  <path class="cls-3" d="M48.75,252.17c-2.71,0-4.65-1.86-4.65-4.65v-43.97c0-2.71,1.86-4.65,4.65-4.65h3.21c2.71,0,5.5,1.69,6.76,4.14l13.7,27.14v-26.64c0-2.71,1.86-4.65,4.65-4.65h2.96c2.71,0,4.65,1.86,4.65,4.65v43.97c0,2.71-1.86,4.65-4.65,4.65h-3.21c-2.71,0-5.5-1.69-6.76-4.14l-14.12-27.14v26.64c0,2.71-1.86,4.65-4.65,4.65h-2.54ZM133.55,245.4c.76,2.62-.51,4.99-3.21,5.83l-3.72,1.1c-2.62.76-4.9-.42-5.66-3.13l-2.03-8.03h-14.46l-2.03,8.03c-.59,2.62-2.88,3.97-5.58,3.13l-3.72-1.1c-2.62-.76-3.97-3.13-3.21-5.83l12.01-42.02c.76-2.62,3.13-4.48,5.92-4.48h7.61c2.71,0,5.16,1.78,5.92,4.48l12.18,42.02ZM107.17,230.18h8.96l-4.48-17.76-4.48,17.76ZM152.15,252.17c-2.71,0-5.16-1.78-5.92-4.48l-12.18-42.03c-.76-2.62.51-4.99,3.21-5.83l3.72-1.1c2.62-.76,4.9.42,5.58,3.13l9.22,36.78,9.3-36.78c.68-2.62,2.96-3.97,5.66-3.13l3.72,1.1c2.62.76,3.97,3.13,3.21,5.83l-12.35,42.03c-.76,2.62-3.13,4.48-5.92,4.48h-7.27ZM187.58,252.17c-2.71,0-4.65-1.86-4.65-4.65v-43.97c0-2.71,1.86-4.65,4.65-4.65h3.21c2.71,0,4.65,1.86,4.65,4.65v43.97c0,2.71-1.86,4.65-4.65,4.65h-3.21ZM220.21,252.17c-1.44,0-2.54-1.01-2.54-2.45v-45.41h-13.19c-1.44,0-2.45-1.01-2.45-2.45v-.51c0-1.44,1.01-2.45,2.45-2.45h32.13c1.44,0,2.54,1.01,2.54,2.45v.51c0,1.44-1.1,2.45-2.54,2.45h-13.19v45.41c0,1.44-1.01,2.45-2.45,2.45h-.76ZM255.13,211.58c7.86,0,13.11,5.41,13.11,13.87v4.9c0,1.44-1.01,2.45-2.45,2.45h-21.39v5.24c0,5.83,3.47,9.55,8.62,9.55h8.96c1.27,0,2.37.93,2.45,2.28-.08,1.35-1.18,2.28-2.45,2.28h-8.96c-8.79,0-13.95-5.33-13.95-14.12v-12.6c0-8.62,5.5-13.87,13.78-13.87h2.28ZM263.16,228.24v-2.96c0-5.58-3.47-9.13-8.03-9.13h-2.28c-4.74,0-8.46,3.55-8.46,9.13v2.96h18.77ZM264.43,250.05v-.34.34ZM290.47,252.17c-9.81,0-15.05-5.16-15.05-14.12v-12.35c0-8.96,5.24-14.12,15.05-14.12h6.76c1.44,0,2.45,1.02,2.45,2.45s-1.01,2.45-2.45,2.45h-6.51c-6.09,0-9.55,3.55-9.55,9.22v12.35c0,5.66,3.47,9.22,9.55,9.22h6.51c1.44,0,2.45,1.01,2.45,2.45s-1.01,2.45-2.45,2.45h-6.76ZM325.73,211.58c7.78,0,12.6,5.84,12.6,13.95v24.18c0,1.44-1.01,2.45-2.45,2.45h-.85c-1.44,0-2.45-1.01-2.45-2.45v-23.85c0-5.83-3.64-9.39-8.2-9.39h-2.54c-4.48,0-8.12,3.55-8.12,9.39v23.85c0,1.44-1.01,2.45-2.45,2.45h-.85c-1.44,0-2.54-1.01-2.54-2.45v-53.44c0-1.44,1.1-2.45,2.54-2.45h.85c1.44,0,2.45,1.01,2.45,2.45v19.7c2.03-2.79,5.16-4.4,9.47-4.4h2.54ZM381.28,248.95c.34,1.35-.34,2.62-1.78,2.96l-.51.08c-1.44.34-2.71-.42-3.13-1.78l-3.97-14.04h-17.17l-3.97,14.04c-.34,1.35-1.69,2.11-3.04,1.78l-.59-.08c-1.35-.34-2.11-1.61-1.69-2.96l13.95-47.86c.42-1.35,1.78-2.37,3.21-2.37h1.35c1.44,0,2.79,1.01,3.13,2.37l14.21,47.86ZM356.08,231.11h14.37l-7.19-25.54-7.19,25.54ZM391.84,201.94c-1.44,0-2.45-1.1-2.45-2.45v-4.82c0-1.44,1.01-2.45,2.45-2.45h.85c1.44,0,2.45,1.01,2.45,2.45v4.82c0,1.35-1.01,2.45-2.45,2.45h-.85ZM391.84,252.17c-1.44,0-2.45-1.01-2.45-2.45v-35.68c0-1.44,1.01-2.45,2.45-2.45h.85c1.44,0,2.45,1.02,2.45,2.45v35.68c0,1.44-1.01,2.45-2.45,2.45h-.85ZM436.48,252l-.76.34c-1.35.51-2.71,0-3.38-1.35-.85-1.86-1.52-3.3-2.03-4.48-2.28,3.64-6.09,5.66-10.4,5.66h-2.03c-7.78,0-13.36-5.33-13.36-14.38v-12.26c0-9.05,5.58-14.38,13.36-14.38h2.03c3.55,0,6.85,1.44,9.22,4.14v-19.03c0-1.44,1.1-2.45,2.54-2.45h.85c1.44,0,2.45,1.01,2.45,2.45v43.97c0,3.13.34,4.4,2.62,8.71.68,1.27.25,2.54-1.1,3.04ZM420.67,247.26c4.9,0,8.46-3.72,8.46-9.47v-12.26c0-5.75-3.55-9.47-8.46-9.47h-1.94c-4.9,0-8.46,3.72-8.46,9.47v12.26c0,5.75,3.55,9.47,8.46,9.47h1.94Z"/>
  <g>
    <g class="cls-1">
      <rect class="cls-4" x="43.97" y="54.8" width="331.41" height="112.49"/>
    </g>
    <g class="cls-6">
      <rect class="cls-5" x="69.33" y="43.41" width="368.9" height="127.66"/>
    </g>
  </g>
</svg>