<svg width="75" height="63" viewBox="0 0 75 63" fill="none" xmlns="http://www.w3.org/2000/svg">
<path d="M71.8335 56.1749H69.4774V39.3197C69.4774 38.8306 69.0796 38.4342 68.5904 38.4342C68.1012 38.4342 67.7048 38.832 67.7048 39.3197V56.1749H28.6532V39.5997C28.6532 39.1105 28.2554 38.7141 27.7662 38.7141H13.2156C12.7264 38.7141 12.3301 39.112 12.3301 39.5997V56.1749H6.64096V34.0167L67.7048 18.2932V34.8905C67.7048 35.3797 68.1026 35.776 68.5904 35.776C69.0781 35.776 69.4774 35.3782 69.4774 34.8905V17.1498C69.4774 16.8772 69.3492 16.6164 69.1341 16.4499C68.919 16.2834 68.6346 16.2245 68.3693 16.2922L62.7024 17.751L61.1744 0.807466C61.1331 0.347741 60.7529 0 60.2917 0H52.9818C52.5206 0 52.1405 0.346267 52.0992 0.805992L50.2824 20.947L43.5869 22.6709L41.9808 4.86395C41.9396 4.40422 41.5594 4.05796 41.0982 4.05796H33.7883C33.3271 4.05796 32.947 4.40422 32.9057 4.86395L31.0079 25.9111L24.4715 27.5938L22.7873 8.92191C22.7461 8.46218 22.3659 8.11591 21.9047 8.11591H14.5948C14.1336 8.11591 13.7534 8.46218 13.7122 8.92191L12.694 20.2102C12.6498 20.6965 13.0108 21.1282 13.4971 21.1724C13.7328 21.1945 13.9627 21.1223 14.1454 20.9705C14.3266 20.8188 14.4386 20.6051 14.4607 20.3693L14.9293 15.1709H21.5732L22.7343 28.0417L13.556 30.4052L14.0629 24.7839C14.1071 24.2976 13.7461 23.8659 13.2598 23.8217C12.7736 23.779 12.3418 24.1385 12.2976 24.6248L11.7333 30.8738L5.53585 32.4695C5.14391 32.5712 4.86984 32.9234 4.86984 33.3286V56.1749H3.1665C2.3222 56.1749 1.528 56.5049 0.928291 57.1031C0.330059 57.7014 0 58.4971 0 59.3414C0 61.0874 1.42043 62.5079 3.1665 62.5079H35.695C36.1842 62.5079 36.582 62.11 36.582 61.6223C36.582 61.1346 36.1842 60.7353 35.695 60.7353H3.1665C2.39735 60.7353 1.77259 60.1105 1.77259 59.3414C1.77259 58.5722 2.39735 57.9474 3.1665 57.9474H71.8335C72.5894 57.9474 73.2274 58.5855 73.2274 59.3414C73.2274 60.0972 72.5894 60.7353 71.8335 60.7353H40.1243C39.6351 60.7353 39.2387 61.1331 39.2387 61.6223C39.2387 62.1115 39.6365 62.5079 40.1243 62.5079H71.8335C73.5796 62.5079 75 61.0874 75 59.3414C75 57.5953 73.5796 56.1749 71.8335 56.1749ZM53.7922 1.77407H59.4828L59.7996 5.28389H53.4754L53.7922 1.77407ZM53.3148 7.05648H59.9587L60.9636 18.1989L52.1051 20.4799L53.3163 7.05648H53.3148ZM34.5972 5.83202H40.2878L40.6046 9.34185H34.2804L34.5972 5.83202ZM34.1213 11.1144H40.7652L41.8482 23.1218L32.8291 25.444L34.1213 11.1144ZM15.0869 13.3998L15.4037 9.88998H21.0943L21.4111 13.3998H15.0869ZM26.8806 56.1749H14.1027V40.4867H26.8806V56.1749Z" fill="url(#paint0_linear_46_2037)"/>
<path d="M41.4858 33.4095C41.4858 32.9203 41.0879 32.5225 40.6002 32.5225H36.1783C35.6891 32.5225 35.2913 32.9203 35.2913 33.4095V38.9321C35.2913 39.4213 35.6891 39.8176 36.1783 39.8176H40.6002C41.0894 39.8176 41.4858 39.4198 41.4858 38.9321V33.4095ZM39.7132 38.0451H37.0639V34.2951H39.7132V38.0451Z" fill="url(#paint1_linear_46_2037)"/>
<path d="M40.5987 43.8255H36.1768C35.6876 43.8255 35.2898 44.2233 35.2898 44.7125V50.2351C35.2898 50.7243 35.6876 51.1207 36.1768 51.1207H40.5987C41.0879 51.1207 41.4843 50.7229 41.4843 50.2351V44.7125C41.4843 44.2233 41.0864 43.8255 40.5987 43.8255ZM39.7132 49.3481H37.0639V45.5981H39.7132V49.3481Z" fill="url(#paint2_linear_46_2037)"/>
<path d="M47.3856 39.8176H51.8075C52.2967 39.8176 52.693 39.4198 52.693 38.9321V33.4095C52.693 32.9203 52.2952 32.5225 51.8075 32.5225H47.3856C46.8964 32.5225 46.5 32.9203 46.5 33.4095V38.9321C46.5 39.4213 46.8978 39.8176 47.3856 39.8176ZM48.2726 34.2951H50.9219V38.0451H48.2726V34.2951Z" fill="url(#paint3_linear_46_2037)"/>
<path d="M47.387 51.1207H51.8089C52.2981 51.1207 52.6945 50.7229 52.6945 50.2351V44.7125C52.6945 44.2233 52.2967 43.8255 51.8089 43.8255H47.387C46.8978 43.8255 46.5015 44.2233 46.5015 44.7125V50.2351C46.5015 50.7243 46.8993 51.1207 47.387 51.1207ZM48.2726 45.5996H50.9219V49.3496H48.2726V45.5996Z" fill="url(#paint4_linear_46_2037)"/>
<path d="M63.9047 33.4095C63.9047 32.9203 63.5069 32.5225 63.0177 32.5225H58.5958C58.1066 32.5225 57.7102 32.9203 57.7102 33.4095V38.9321C57.7102 39.4213 58.1081 39.8176 58.5958 39.8176H63.0177C63.5069 39.8176 63.9047 39.4198 63.9047 38.9321V33.4095ZM62.1321 38.0451H59.4828V34.2951H62.1321V38.0451Z" fill="url(#paint5_linear_46_2037)"/>
<path d="M63.0177 43.8255H58.5958C58.1066 43.8255 57.7102 44.2233 57.7102 44.7125V50.2351C57.7102 50.7243 58.1081 51.1207 58.5958 51.1207H63.0177C63.5069 51.1207 63.9047 50.7229 63.9047 50.2351V44.7125C63.9047 44.2233 63.5069 43.8255 63.0177 43.8255ZM62.1321 49.3481H59.4828V45.5981H62.1321V49.3481Z" fill="url(#paint6_linear_46_2037)"/>
<defs>
<linearGradient id="paint0_linear_46_2037" x1="37.4988" y1="0.00619219" x2="37.4988" y2="62.5017" gradientUnits="userSpaceOnUse">
<stop stop-color="#FBBD12"/>
<stop offset="0.25" stop-color="#A2D63C"/>
<stop offset="0.47" stop-color="#61C9BF"/>
<stop offset="0.81" stop-color="#007E88"/>
<stop offset="1" stop-color="#2670DB"/>
</linearGradient>
<linearGradient id="paint1_linear_46_2037" x1="37.4988" y1="0.00619219" x2="37.4988" y2="62.5017" gradientUnits="userSpaceOnUse">
<stop stop-color="#FBBD12"/>
<stop offset="0.25" stop-color="#A2D63C"/>
<stop offset="0.47" stop-color="#61C9BF"/>
<stop offset="0.81" stop-color="#007E88"/>
<stop offset="1" stop-color="#2670DB"/>
</linearGradient>
<linearGradient id="paint2_linear_46_2037" x1="37.4988" y1="0.00619219" x2="37.4988" y2="62.5017" gradientUnits="userSpaceOnUse">
<stop stop-color="#FBBD12"/>
<stop offset="0.25" stop-color="#A2D63C"/>
<stop offset="0.47" stop-color="#61C9BF"/>
<stop offset="0.81" stop-color="#007E88"/>
<stop offset="1" stop-color="#2670DB"/>
</linearGradient>
<linearGradient id="paint3_linear_46_2037" x1="37.4988" y1="0.00619219" x2="37.4988" y2="62.5017" gradientUnits="userSpaceOnUse">
<stop stop-color="#FBBD12"/>
<stop offset="0.25" stop-color="#A2D63C"/>
<stop offset="0.47" stop-color="#61C9BF"/>
<stop offset="0.81" stop-color="#007E88"/>
<stop offset="1" stop-color="#2670DB"/>
</linearGradient>
<linearGradient id="paint4_linear_46_2037" x1="37.4988" y1="0.00619219" x2="37.4988" y2="62.5017" gradientUnits="userSpaceOnUse">
<stop stop-color="#FBBD12"/>
<stop offset="0.25" stop-color="#A2D63C"/>
<stop offset="0.47" stop-color="#61C9BF"/>
<stop offset="0.81" stop-color="#007E88"/>
<stop offset="1" stop-color="#2670DB"/>
</linearGradient>
<linearGradient id="paint5_linear_46_2037" x1="37.4988" y1="0.00619219" x2="37.4988" y2="62.5017" gradientUnits="userSpaceOnUse">
<stop stop-color="#FBBD12"/>
<stop offset="0.25" stop-color="#A2D63C"/>
<stop offset="0.47" stop-color="#61C9BF"/>
<stop offset="0.81" stop-color="#007E88"/>
<stop offset="1" stop-color="#2670DB"/>
</linearGradient>
<linearGradient id="paint6_linear_46_2037" x1="37.4988" y1="0.00619219" x2="37.4988" y2="62.5017" gradientUnits="userSpaceOnUse">
<stop stop-color="#FBBD12"/>
<stop offset="0.25" stop-color="#A2D63C"/>
<stop offset="0.47" stop-color="#61C9BF"/>
<stop offset="0.81" stop-color="#007E88"/>
<stop offset="1" stop-color="#2670DB"/>
</linearGradient>
</defs>
</svg>
