<svg width="61" height="68" viewBox="0 0 61 68" fill="none" xmlns="http://www.w3.org/2000/svg">
<path fill-rule="evenodd" clip-rule="evenodd" d="M20.4639 52.6083C20.4639 52.0284 20.934 51.5583 21.5139 51.5583H30.9409C31.5208 51.5583 31.9909 52.0284 31.9909 52.6083C31.9909 53.1882 31.5208 53.6583 30.9409 53.6583H22.5639V58.6116C22.5639 59.8179 23.5398 60.7925 24.7377 60.7925H35.8802C37.0784 60.7925 38.054 59.8186 38.054 58.6116V53.6583H34.8509C34.271 53.6583 33.8009 53.1882 33.8009 52.6083C33.8009 52.0284 34.271 51.5583 34.8509 51.5583H39.104C39.6839 51.5583 40.154 52.0284 40.154 52.6083V58.6116C40.154 60.9745 38.2421 62.8925 35.8802 62.8925H24.7377C22.3756 62.8925 20.4639 60.9733 20.4639 58.6116V52.6083Z" fill="url(#paint0_linear_46_2041)"/>
<path fill-rule="evenodd" clip-rule="evenodd" d="M23.777 61.2182C23.975 60.9503 24.2883 60.7923 24.6214 60.7923H35.9976C36.3307 60.7923 36.6441 60.9504 36.8421 61.2183C37.04 61.4863 37.0991 61.8323 37.0012 62.1507C36.1214 65.0138 33.4616 67.0999 30.3095 67.0999C27.1577 67.0999 24.4965 65.014 23.6176 62.1504C23.5199 61.832 23.5791 61.4861 23.777 61.2182ZM26.286 62.8923C27.1721 64.1671 28.6452 64.9999 30.3095 64.9999C31.9735 64.9999 33.4462 64.1673 34.3326 62.8923H26.286Z" fill="url(#paint1_linear_46_2041)"/>
<path fill-rule="evenodd" clip-rule="evenodd" d="M27.267 19.0673C27.3404 18.5495 27.7836 18.1646 28.3066 18.1646H32.3104C32.8335 18.1646 33.2768 18.5496 33.3501 19.0676L33.7183 21.6712C34.369 21.8752 34.995 22.136 35.5898 22.448L37.6856 20.87C38.104 20.555 38.6905 20.5964 39.0604 20.9672L41.8913 23.8042C42.26 24.1738 42.3012 24.758 41.9881 25.1757L40.4115 27.2789C40.7235 27.8761 40.9844 28.5044 41.1884 29.1577L43.7847 29.5273C44.3022 29.601 44.6867 30.0441 44.6867 30.5668V34.5795C44.6867 35.1022 44.3022 35.5454 43.7847 35.619L41.1884 35.9886C40.9845 36.6419 40.7237 37.2704 40.4116 37.8676L41.9881 39.9706C42.3012 40.3883 42.26 40.9726 41.8913 41.3421L39.0604 44.1792C38.6905 44.5499 38.104 44.5914 37.6856 44.2763L35.5898 42.6983C34.995 43.0103 34.369 43.2711 33.7183 43.4752L33.3501 46.0788C33.2768 46.5967 32.8335 46.9817 32.3104 46.9817H28.3066C27.7836 46.9817 27.3404 46.5969 27.267 46.0791L26.8979 43.4752C26.2472 43.2712 25.6211 43.0103 25.0262 42.6983L22.9304 44.2763C22.5121 44.5914 21.9255 44.5499 21.5556 44.1792L18.7247 41.3421C18.356 40.9726 18.3148 40.3883 18.6279 39.9706L20.2045 37.8674C19.8925 37.2702 19.6316 36.642 19.4276 35.9886L16.8313 35.619C16.3138 35.5454 15.9293 35.1022 15.9293 34.5795V30.5668C15.9293 30.0441 16.3138 29.601 16.8313 29.5273L19.4276 29.1577C19.6315 28.5044 19.8923 27.8759 20.2044 27.2787L18.6279 25.1757C18.3148 24.758 18.356 24.1738 18.7247 23.8042L21.5556 20.9672C21.9255 20.5964 22.5121 20.555 22.9304 20.87L25.0264 22.4482C25.6213 22.1362 26.2471 21.8753 26.8979 21.6711L27.267 19.0673ZM29.2182 20.2646L28.8809 22.6448C28.8207 23.0696 28.508 23.4151 28.0912 23.5172C27.162 23.745 26.287 24.1126 25.4896 24.5976C25.1222 24.821 24.6558 24.7979 24.3124 24.5393L22.397 23.097L20.8537 24.6438L22.2954 26.567C22.5525 26.9099 22.5753 27.3746 22.3532 27.7411C21.8695 28.539 21.5025 29.4172 21.275 30.3495C21.1732 30.7665 20.8279 31.0795 20.4029 31.14L18.0293 31.478V33.6684L20.4029 34.0063C20.8279 34.0668 21.1732 34.3799 21.275 34.7969C21.5024 35.7288 21.8694 36.6063 22.3535 37.4057C22.5753 37.7721 22.5524 38.2366 22.2954 38.5793L20.8537 40.5026L22.397 42.0493L24.3124 40.6071C24.656 40.3484 25.1226 40.3254 25.49 40.549C26.2859 41.0336 27.1617 41.4013 28.0912 41.6291C28.508 41.7313 28.8207 42.0767 28.8809 42.5016L29.2182 44.8817H31.3985L31.7351 42.5019C31.7952 42.0769 32.1079 41.7313 32.5248 41.6291C33.4543 41.4013 34.3301 41.0336 35.126 40.549C35.4934 40.3254 35.96 40.3484 36.3036 40.6071L38.219 42.0493L39.7623 40.5026L38.3206 38.5793C38.0635 38.2364 38.0407 37.7717 38.2628 37.4052C38.7465 36.6073 39.1135 35.7291 39.341 34.7969C39.4428 34.3799 39.7881 34.0668 40.2131 34.0063L42.5867 33.6684V31.478L40.2131 31.14C39.7881 31.0795 39.4428 30.7665 39.341 30.3495C39.1136 29.4175 38.7466 28.5401 38.2625 27.7407C38.0407 27.3742 38.0636 26.9098 38.3206 26.567L39.7623 24.6438L38.219 23.097L36.3036 24.5393C35.96 24.798 35.4934 24.821 35.126 24.5973C34.3301 24.1127 33.4543 23.7451 32.5248 23.5172C32.1079 23.4151 31.7952 23.0695 31.7351 22.6445L31.3985 20.2646H29.2182ZM30.3085 28.2537C27.9317 28.2537 26.0008 30.1855 26.0008 32.5732C26.0008 34.9609 27.9317 36.8927 30.3085 36.8927C32.6853 36.8927 34.6162 34.9609 34.6162 32.5732C34.6162 30.1855 32.6853 28.2537 30.3085 28.2537ZM23.9008 32.5732C23.9008 29.03 26.7675 26.1537 30.3085 26.1537C33.8495 26.1537 36.7162 29.03 36.7162 32.5732C36.7162 36.1163 33.8495 38.9927 30.3085 38.9927C26.7675 38.9927 23.9008 36.1163 23.9008 32.5732Z" fill="url(#paint2_linear_46_2041)"/>
<path fill-rule="evenodd" clip-rule="evenodd" d="M30.3085 0C30.8884 0 31.3585 0.470101 31.3585 1.05V6.79567C31.3585 7.37557 30.8884 7.84567 30.3085 7.84567C29.7286 7.84567 29.2585 7.37557 29.2585 6.79567V1.05C29.2585 0.470101 29.7286 0 30.3085 0Z" fill="url(#paint3_linear_46_2041)"/>
<path fill-rule="evenodd" clip-rule="evenodd" d="M52.783 30.373C52.783 29.7931 53.2531 29.323 53.833 29.323H59.566C60.1459 29.323 60.616 29.7931 60.616 30.373C60.616 30.9529 60.1459 31.423 59.566 31.423H53.833C53.2531 31.423 52.783 30.9529 52.783 30.373Z" fill="url(#paint4_linear_46_2041)"/>
<path fill-rule="evenodd" clip-rule="evenodd" d="M0 30.373C0 29.7931 0.470101 29.323 1.05 29.323H6.78303C7.36293 29.323 7.83303 29.7931 7.83303 30.373C7.83303 30.9529 7.36293 31.423 6.78303 31.423H1.05C0.470101 31.423 0 30.9529 0 30.373Z" fill="url(#paint5_linear_46_2041)"/>
<path fill-rule="evenodd" clip-rule="evenodd" d="M8.87809 8.89536C9.28859 8.48577 9.95341 8.4865 10.363 8.897L14.4167 12.9596C14.8263 13.3701 14.8256 14.0349 14.4151 14.4445C14.0046 14.8541 13.3397 14.8534 12.9301 14.4429L8.87645 10.3803C8.46686 9.96979 8.46759 9.30496 8.87809 8.89536Z" fill="url(#paint6_linear_46_2041)"/>
<path fill-rule="evenodd" clip-rule="evenodd" d="M5.44591 20.6109C5.65782 20.0711 6.26719 19.8053 6.80699 20.0172L8.78838 20.7951C9.32817 21.007 9.59398 21.6163 9.38206 22.1561C9.17016 22.6959 8.56078 22.9617 8.02099 22.7498L6.03959 21.972C5.4998 21.7601 5.234 21.1507 5.44591 20.6109Z" fill="url(#paint7_linear_46_2041)"/>
<path fill-rule="evenodd" clip-rule="evenodd" d="M20.5462 5.3993C21.0863 5.18822 21.6953 5.45496 21.9064 5.99508L22.705 8.03864C22.9161 8.57876 22.6493 9.18773 22.1092 9.3988C21.5691 9.60988 20.9601 9.34314 20.7491 8.80302L19.9504 6.75946C19.7394 6.21934 20.0061 5.61037 20.5462 5.3993Z" fill="url(#paint8_linear_46_2041)"/>
<path fill-rule="evenodd" clip-rule="evenodd" d="M40.0708 5.3993C40.6109 5.61038 40.8776 6.21934 40.6666 6.75946L39.8679 8.80302C39.6569 9.34314 39.0479 9.60988 38.5078 9.3988C37.9677 9.18772 37.7009 8.57876 37.912 8.03864L38.7106 5.99508C38.9217 5.45496 39.5307 5.18822 40.0708 5.3993Z" fill="url(#paint9_linear_46_2041)"/>
<path fill-rule="evenodd" clip-rule="evenodd" d="M51.739 8.89536C52.1495 9.30496 52.1502 9.96979 51.7406 10.3803L47.6869 14.4429C47.2773 14.8534 46.6125 14.8541 46.202 14.4445C45.7915 14.0349 45.7907 13.3701 46.2003 12.9596L50.254 8.897C50.6636 8.4865 51.3284 8.48577 51.739 8.89536Z" fill="url(#paint10_linear_46_2041)"/>
<path fill-rule="evenodd" clip-rule="evenodd" d="M55.1711 20.6109C55.3831 21.1507 55.1173 21.7601 54.5775 21.972L52.5961 22.7498C52.0563 22.9617 51.4469 22.6959 51.235 22.1561C51.0231 21.6164 51.2889 21.007 51.8287 20.7951L53.8101 20.0172C54.3499 19.8053 54.9592 20.0711 55.1711 20.6109Z" fill="url(#paint11_linear_46_2041)"/>
<path fill-rule="evenodd" clip-rule="evenodd" d="M17.2208 16.062C17.6246 16.4782 17.6144 17.143 17.1981 17.5467C13.6343 21.0032 11.4097 25.8289 11.4097 31.1322C11.4097 37.5535 14.5971 43.2283 19.4762 46.6547C21.1248 47.8127 22.202 49.5946 22.4872 51.5581L30.9409 51.5583C31.5208 51.5583 31.9909 52.0284 31.9909 52.6083C31.9909 53.1882 31.5208 53.6583 30.9409 53.6583L21.513 53.6581C20.9331 53.6581 20.4639 53.1882 20.4639 52.6083C20.4639 50.9203 19.6445 49.3392 18.2693 48.3732C12.8534 44.5698 9.3097 38.2653 9.3097 31.1322C9.3097 25.2302 11.7869 19.8694 15.7361 16.0392C16.1524 15.6355 16.8171 15.6457 17.2208 16.062Z" fill="url(#paint12_linear_46_2041)"/>
<path fill-rule="evenodd" clip-rule="evenodd" d="M18.9622 13.4667C22.2889 11.3038 26.256 10.0555 30.4883 10.0906C42.0045 10.1875 51.3073 19.5727 51.3073 31.1323C51.3073 38.2469 47.7822 44.537 42.3899 48.3435C40.9925 49.3297 40.154 50.9142 40.154 52.6083C40.154 53.1882 39.6839 53.6583 39.104 53.6583L34.8509 53.6583C34.271 53.6583 33.8009 53.1882 33.8009 52.6083C33.8009 52.0284 34.271 51.5583 34.8509 51.5583L38.1306 51.5583C38.4216 49.5755 39.5264 47.794 41.1789 46.6278C46.0366 43.1986 49.2073 37.5369 49.2073 31.1323C49.2073 20.7223 40.8309 12.2777 30.4707 12.1905C26.6681 12.159 23.1026 13.2795 20.1068 15.2273C19.6207 15.5433 18.9703 15.4055 18.6542 14.9193C18.3381 14.4331 18.476 13.7827 18.9622 13.4667Z" fill="url(#paint13_linear_46_2041)"/>
<defs>
<linearGradient id="paint0_linear_46_2041" x1="30.307" y1="0.00500461" x2="30.307" y2="67.0949" gradientUnits="userSpaceOnUse">
<stop stop-color="#FBBD12"/>
<stop offset="0.25" stop-color="#A2D63C"/>
<stop offset="0.47" stop-color="#61C9BF"/>
<stop offset="0.81" stop-color="#007E88"/>
<stop offset="1" stop-color="#2670DB"/>
</linearGradient>
<linearGradient id="paint1_linear_46_2041" x1="30.307" y1="0.00500461" x2="30.307" y2="67.0949" gradientUnits="userSpaceOnUse">
<stop stop-color="#FBBD12"/>
<stop offset="0.25" stop-color="#A2D63C"/>
<stop offset="0.47" stop-color="#61C9BF"/>
<stop offset="0.81" stop-color="#007E88"/>
<stop offset="1" stop-color="#2670DB"/>
</linearGradient>
<linearGradient id="paint2_linear_46_2041" x1="30.307" y1="0.00500461" x2="30.307" y2="67.0949" gradientUnits="userSpaceOnUse">
<stop stop-color="#FBBD12"/>
<stop offset="0.25" stop-color="#A2D63C"/>
<stop offset="0.47" stop-color="#61C9BF"/>
<stop offset="0.81" stop-color="#007E88"/>
<stop offset="1" stop-color="#2670DB"/>
</linearGradient>
<linearGradient id="paint3_linear_46_2041" x1="30.307" y1="0.00500461" x2="30.307" y2="67.0949" gradientUnits="userSpaceOnUse">
<stop stop-color="#FBBD12"/>
<stop offset="0.25" stop-color="#A2D63C"/>
<stop offset="0.47" stop-color="#61C9BF"/>
<stop offset="0.81" stop-color="#007E88"/>
<stop offset="1" stop-color="#2670DB"/>
</linearGradient>
<linearGradient id="paint4_linear_46_2041" x1="30.307" y1="0.00500461" x2="30.307" y2="67.0949" gradientUnits="userSpaceOnUse">
<stop stop-color="#FBBD12"/>
<stop offset="0.25" stop-color="#A2D63C"/>
<stop offset="0.47" stop-color="#61C9BF"/>
<stop offset="0.81" stop-color="#007E88"/>
<stop offset="1" stop-color="#2670DB"/>
</linearGradient>
<linearGradient id="paint5_linear_46_2041" x1="30.307" y1="0.00500461" x2="30.307" y2="67.0949" gradientUnits="userSpaceOnUse">
<stop stop-color="#FBBD12"/>
<stop offset="0.25" stop-color="#A2D63C"/>
<stop offset="0.47" stop-color="#61C9BF"/>
<stop offset="0.81" stop-color="#007E88"/>
<stop offset="1" stop-color="#2670DB"/>
</linearGradient>
<linearGradient id="paint6_linear_46_2041" x1="30.307" y1="0.00500461" x2="30.307" y2="67.0949" gradientUnits="userSpaceOnUse">
<stop stop-color="#FBBD12"/>
<stop offset="0.25" stop-color="#A2D63C"/>
<stop offset="0.47" stop-color="#61C9BF"/>
<stop offset="0.81" stop-color="#007E88"/>
<stop offset="1" stop-color="#2670DB"/>
</linearGradient>
<linearGradient id="paint7_linear_46_2041" x1="30.307" y1="0.00500461" x2="30.307" y2="67.0949" gradientUnits="userSpaceOnUse">
<stop stop-color="#FBBD12"/>
<stop offset="0.25" stop-color="#A2D63C"/>
<stop offset="0.47" stop-color="#61C9BF"/>
<stop offset="0.81" stop-color="#007E88"/>
<stop offset="1" stop-color="#2670DB"/>
</linearGradient>
<linearGradient id="paint8_linear_46_2041" x1="30.307" y1="0.00500461" x2="30.307" y2="67.0949" gradientUnits="userSpaceOnUse">
<stop stop-color="#FBBD12"/>
<stop offset="0.25" stop-color="#A2D63C"/>
<stop offset="0.47" stop-color="#61C9BF"/>
<stop offset="0.81" stop-color="#007E88"/>
<stop offset="1" stop-color="#2670DB"/>
</linearGradient>
<linearGradient id="paint9_linear_46_2041" x1="30.307" y1="0.00500461" x2="30.307" y2="67.0949" gradientUnits="userSpaceOnUse">
<stop stop-color="#FBBD12"/>
<stop offset="0.25" stop-color="#A2D63C"/>
<stop offset="0.47" stop-color="#61C9BF"/>
<stop offset="0.81" stop-color="#007E88"/>
<stop offset="1" stop-color="#2670DB"/>
</linearGradient>
<linearGradient id="paint10_linear_46_2041" x1="30.307" y1="0.00500461" x2="30.307" y2="67.0949" gradientUnits="userSpaceOnUse">
<stop stop-color="#FBBD12"/>
<stop offset="0.25" stop-color="#A2D63C"/>
<stop offset="0.47" stop-color="#61C9BF"/>
<stop offset="0.81" stop-color="#007E88"/>
<stop offset="1" stop-color="#2670DB"/>
</linearGradient>
<linearGradient id="paint11_linear_46_2041" x1="30.307" y1="0.00500461" x2="30.307" y2="67.0949" gradientUnits="userSpaceOnUse">
<stop stop-color="#FBBD12"/>
<stop offset="0.25" stop-color="#A2D63C"/>
<stop offset="0.47" stop-color="#61C9BF"/>
<stop offset="0.81" stop-color="#007E88"/>
<stop offset="1" stop-color="#2670DB"/>
</linearGradient>
<linearGradient id="paint12_linear_46_2041" x1="30.307" y1="0.00500461" x2="30.307" y2="67.0949" gradientUnits="userSpaceOnUse">
<stop stop-color="#FBBD12"/>
<stop offset="0.25" stop-color="#A2D63C"/>
<stop offset="0.47" stop-color="#61C9BF"/>
<stop offset="0.81" stop-color="#007E88"/>
<stop offset="1" stop-color="#2670DB"/>
</linearGradient>
<linearGradient id="paint13_linear_46_2041" x1="30.307" y1="0.00500461" x2="30.307" y2="67.0949" gradientUnits="userSpaceOnUse">
<stop stop-color="#FBBD12"/>
<stop offset="0.25" stop-color="#A2D63C"/>
<stop offset="0.47" stop-color="#61C9BF"/>
<stop offset="0.81" stop-color="#007E88"/>
<stop offset="1" stop-color="#2670DB"/>
</linearGradient>
</defs>
</svg>
