<svg width="65" height="65" viewBox="0 0 65 65" fill="none" xmlns="http://www.w3.org/2000/svg">
<path d="M33.0031 26.6783C37.2231 26.4116 40.6067 23.0282 40.8734 18.8081C41.1936 13.7401 37.0137 9.52377 31.9112 9.84585C27.6911 10.1125 24.3076 13.4959 24.0408 17.7159C23.7194 22.8037 27.9229 27.0004 33.0031 26.6783ZM25.9394 17.8359C26.1458 14.5695 28.7648 11.9506 32.0311 11.7442C35.972 11.4964 39.224 14.7442 38.9748 18.688C38.7684 21.9544 36.1495 24.5733 32.8831 24.7797C28.9462 25.0277 25.6901 21.783 25.9394 17.8359Z" fill="url(#paint0_linear_46_1989)"/>
<path d="M17.9288 13.7814C17.9217 13.7813 17.915 13.7814 17.908 13.7814C15.8685 13.7814 14.1951 15.3712 14.1951 17.4252V19.0089C14.1951 21.0677 15.87 22.7428 17.9288 22.7428C19.3012 22.7428 19.9889 24.3937 19.0156 25.3669C17.56 26.8227 17.56 29.1915 19.0156 30.6472L20.0719 31.7035C21.5312 33.1626 23.8929 33.1629 25.3523 31.7035C26.3229 30.7329 27.9764 31.4144 27.9764 32.7905C27.9764 34.8493 29.6513 36.5242 31.7101 36.5242H33.2039C35.2627 36.5242 36.9377 34.8491 36.9377 32.7905C36.9377 31.4161 38.5905 30.732 39.5619 31.7035C41.0178 33.1593 43.3863 33.1593 44.8422 31.7035L45.8985 30.6472C47.3541 29.1915 47.3541 26.8227 45.8985 25.3669C44.9245 24.3932 45.6141 22.7428 46.9854 22.7428H47.0061C49.0502 22.7428 50.7191 21.1491 50.7191 19.0991V17.4253C50.7191 15.3736 49.0484 13.7815 47.0063 13.7815C47.0014 13.7815 46.9966 13.7815 46.9918 13.7815C46.9896 13.7815 46.9877 13.7815 46.9856 13.7815C45.6119 13.7815 44.9259 12.1296 45.8985 11.1574C47.3541 9.70163 47.3541 7.33294 45.8983 5.87704L44.7785 4.75719C43.3355 3.31386 41.0218 3.35029 39.5666 4.81609C38.596 5.79401 36.9379 5.11075 36.9379 3.73369C36.9379 1.67489 35.263 0 33.204 0H31.7102C29.6514 0 27.9765 1.67502 27.9765 3.73369C27.9765 5.10605 26.3257 5.79363 25.3524 4.82054C23.8965 3.36477 21.5279 3.36477 20.072 4.82054L19.0158 5.87679C17.5601 7.33256 17.5601 9.70138 19.0159 11.1571C19.9914 12.1328 19.297 13.7814 17.9288 13.7814ZM20.361 9.81208C19.6469 9.0981 19.6469 7.93609 20.361 7.22198L21.4172 6.16573C22.1328 5.4501 23.2913 5.44997 24.0071 6.16573C26.1729 8.33155 29.8786 6.80177 29.8786 3.73369C29.8786 2.72378 30.7003 1.90227 31.7101 1.90227H33.2039C34.2138 1.90227 35.0354 2.72391 35.0354 3.73369C35.0354 6.80329 38.7501 8.33828 40.9162 6.15621C41.6329 5.43448 42.7395 5.40808 43.4333 6.10213L44.5532 7.22198C45.2673 7.93609 45.2673 9.09797 44.5533 9.81208C42.381 11.9841 43.9275 15.6998 46.9986 15.6835H47.006C48.011 15.6835 48.8167 16.4376 48.8167 17.4251V19.0988C48.8167 20.0877 48.0095 20.8402 47.006 20.8402C46.9987 20.8402 46.9922 20.8404 46.9853 20.8402C43.9214 20.8402 42.3843 24.5427 44.5532 26.7118C45.2673 27.4259 45.2673 28.5878 44.5532 29.3019L43.4969 30.3582C42.7811 31.0739 41.623 31.0739 40.9069 30.358C38.7407 28.1921 35.0355 29.7225 35.0355 32.7902C35.0355 33.8001 34.2138 34.6216 33.204 34.6216H31.7102C30.7003 34.6216 29.8788 33.8 29.8788 32.7901C29.8788 29.727 26.1768 28.1885 24.0072 30.358C23.2915 31.0737 22.1331 31.0738 21.4173 30.358L20.3611 29.3018C19.647 28.5877 19.647 27.4258 20.3611 26.7117C22.5277 24.545 20.9961 20.8401 17.9289 20.8401C16.919 20.8401 16.0975 20.0185 16.0975 19.0087V17.425C16.0975 16.436 16.9049 15.6834 17.9082 15.6834H17.9289C20.9922 15.6835 22.5302 11.9815 20.361 9.81208Z" fill="url(#paint1_linear_46_1989)"/>
<path d="M61.1659 8.8513H50.2113C49.686 8.8513 49.2602 9.2771 49.2602 9.80243C49.2602 10.3278 49.686 10.7536 50.2113 10.7536H61.1659C62.1562 10.7536 62.962 11.5593 62.962 12.5497V42.5071H1.95225V12.5497C1.95225 11.5593 2.75802 10.7536 3.74839 10.7536H14.7235C15.2488 10.7536 15.6746 10.3278 15.6746 9.80243C15.6746 9.2771 15.2488 8.8513 14.7235 8.8513H3.74839C1.70914 8.8513 0.0499878 10.5104 0.0499878 12.5497V47.7368C0.0499878 49.776 1.70914 51.4352 3.74839 51.4352H25.465V51.6251C25.465 54.162 24.2895 56.5758 22.3066 58.1431H19.1665C17.276 58.1431 15.7381 59.6812 15.7381 61.5716C15.7381 63.4621 17.276 65 19.1665 65H45.7479C47.6384 65 49.1763 63.462 49.1763 61.5716C49.1763 59.6812 47.6384 58.1431 45.7479 58.1431H42.6077C40.6247 56.5756 39.4491 54.1619 39.4491 51.6251V51.4352H61.1659C63.2051 51.4352 64.8643 49.776 64.8643 47.7368C64.8643 45.9351 64.8643 13.7083 64.8643 12.5497C64.8644 10.5103 63.2052 8.8513 61.1659 8.8513ZM45.7479 60.0454C46.5894 60.0454 47.274 60.7301 47.274 61.5716C47.274 62.4131 46.5894 63.0977 45.7479 63.0977H19.1665C18.325 63.0977 17.6404 62.4131 17.6404 61.5716C17.6404 60.7301 18.325 60.0454 19.1665 60.0454H45.7479ZM39.9029 58.1431H25.0115C26.5132 56.3288 27.3674 54.0219 27.3674 51.6251V51.4352H37.5467V51.6251C37.5469 54.0219 38.401 56.3288 39.9029 58.1431ZM62.9621 47.7368C62.9621 48.7271 62.1563 49.5329 61.166 49.5329H3.74851C2.75815 49.5329 1.95238 48.7271 1.95238 47.7368V44.4095H62.9621V47.7368Z" fill="url(#paint2_linear_46_1989)"/>
<defs>
<linearGradient id="paint0_linear_46_1989" x1="32.4561" y1="0.00535123" x2="32.4561" y2="64.9947" gradientUnits="userSpaceOnUse">
<stop stop-color="#FBBD12"/>
<stop offset="0.25" stop-color="#A2D63C"/>
<stop offset="0.47" stop-color="#61C9BF"/>
<stop offset="0.81" stop-color="#007E88"/>
<stop offset="1" stop-color="#2670DB"/>
</linearGradient>
<linearGradient id="paint1_linear_46_1989" x1="32.4561" y1="0.00535123" x2="32.4561" y2="64.9947" gradientUnits="userSpaceOnUse">
<stop stop-color="#FBBD12"/>
<stop offset="0.25" stop-color="#A2D63C"/>
<stop offset="0.47" stop-color="#61C9BF"/>
<stop offset="0.81" stop-color="#007E88"/>
<stop offset="1" stop-color="#2670DB"/>
</linearGradient>
<linearGradient id="paint2_linear_46_1989" x1="32.4561" y1="0.00535123" x2="32.4561" y2="64.9947" gradientUnits="userSpaceOnUse">
<stop stop-color="#FBBD12"/>
<stop offset="0.25" stop-color="#A2D63C"/>
<stop offset="0.47" stop-color="#61C9BF"/>
<stop offset="0.81" stop-color="#007E88"/>
<stop offset="1" stop-color="#2670DB"/>
</linearGradient>
</defs>
</svg>
